<svg width="66" height="65" viewBox="0 0 66 65" fill="none" xmlns="http://www.w3.org/2000/svg">
<ellipse cx="32.6244" cy="32.5" rx="32.6244" ry="32.5" fill="white"/>
<g clip-path="url(#clip0_1_147)">
<path d="M38.8926 17.6271H26.3565C25.1482 17.6271 24.1643 18.6073 24.1643 19.811V45.1886C24.1643 46.3928 25.1482 47.3729 26.3565 47.3729H38.8921C40.1009 47.3729 41.0848 46.3928 41.0848 45.1891V19.811C41.0848 18.6073 40.1009 17.6271 38.8926 17.6271ZM25.1596 21.5932H40.0895V40.4322H25.1596V21.5932ZM26.3565 18.6187H38.8921C39.5525 18.6187 40.0895 19.1536 40.0895 19.811V20.6017H25.1596V19.811C25.1596 19.1536 25.6966 18.6187 26.3565 18.6187ZM38.8926 46.3814H26.3565C25.6966 46.3814 25.1596 45.8464 25.1596 45.1891V41.4237H40.0895V45.1891C40.0895 45.8464 39.5525 46.3814 38.8926 46.3814Z" fill="#DC7000"/>
<path d="M32.6247 41.9195C31.5268 41.9195 30.634 42.8089 30.634 43.9026C30.634 44.9962 31.5268 45.8856 32.6247 45.8856C33.7225 45.8856 34.6153 44.9962 34.6153 43.9026C34.6153 42.8089 33.7225 41.9195 32.6247 41.9195ZM32.6247 44.8941C32.0758 44.8941 31.6294 44.4494 31.6294 43.9026C31.6294 43.3558 32.0758 42.9111 32.6247 42.9111C33.1736 42.9111 33.62 43.3558 33.62 43.9026C33.62 44.4494 33.1736 44.8941 32.6247 44.8941Z" fill="#DC7000"/>
<path d="M30.6339 20.1059H32.6245C32.8997 20.1059 33.1222 19.8843 33.1222 19.6102C33.1222 19.336 32.8997 19.1144 32.6245 19.1144H30.6339C30.3587 19.1144 30.1362 19.336 30.1362 19.6102C30.1362 19.8843 30.3587 20.1059 30.6339 20.1059Z" fill="#DC7000"/>
<path d="M34.1172 20.1059H34.6146C34.8896 20.1059 35.1119 19.8843 35.1119 19.6102C35.1119 19.336 34.8896 19.1144 34.6146 19.1144H34.1172C33.8422 19.1144 33.6199 19.336 33.6199 19.6102C33.6199 19.8843 33.8422 20.1059 34.1172 20.1059Z" fill="#DC7000"/>
<path d="M45.8684 19.8923C45.6738 19.6984 45.3593 19.6984 45.1647 19.8923C44.9702 20.0861 44.9702 20.3994 45.1647 20.5933C47.024 22.4454 47.024 25.4592 45.1647 27.3119C44.9702 27.5057 44.9702 27.819 45.1647 28.0129C45.2618 28.1095 45.3892 28.1581 45.5166 28.1581C45.644 28.1581 45.7714 28.1095 45.8684 28.0129C48.1159 25.7745 48.1159 22.1311 45.8684 19.8923Z" fill="#DC7000"/>
<path d="M43.7727 21.0206C43.5781 20.8268 43.2636 20.8268 43.069 21.0206C42.8744 21.2145 42.8744 21.5278 43.069 21.7216C43.6846 22.3349 44.0235 23.1519 44.0235 24.0215C44.0235 24.891 43.6846 25.7076 43.069 26.3208C42.8744 26.5147 42.8744 26.828 43.069 27.0218C43.1661 27.1185 43.2935 27.1671 43.4209 27.1671C43.5483 27.1671 43.6757 27.1185 43.7727 27.0218C44.5765 26.2217 45.0189 25.1558 45.0189 24.0215C45.0189 22.8872 44.5769 21.8208 43.7727 21.0206Z" fill="#DC7000"/>
<path d="M20.0846 20.5933C20.2792 20.3994 20.2792 20.0861 20.0846 19.8923C19.89 19.6984 19.5755 19.6984 19.3809 19.8923C17.1335 22.1311 17.1335 25.774 19.3809 28.0129C19.4779 28.1095 19.6053 28.1581 19.7327 28.1581C19.8601 28.1581 19.9875 28.1095 20.0846 28.0129C20.2792 27.819 20.2792 27.5057 20.0846 27.3119C18.2248 25.4597 18.2248 22.4459 20.0846 20.5933Z" fill="#DC7000"/>
<path d="M22.1803 20.8838C21.9857 20.6899 21.6712 20.6899 21.4766 20.8838C20.6729 21.6839 20.2305 22.7498 20.2305 23.8841C20.2305 25.0184 20.6729 26.0843 21.4766 26.885C21.5737 26.9817 21.7011 27.0303 21.8285 27.0303C21.9559 27.0303 22.0833 26.9817 22.1803 26.885C22.3749 26.6912 22.3749 26.3778 22.1803 26.184C21.5647 25.5707 21.2258 24.7537 21.2258 23.8841C21.2258 23.0146 21.5642 22.1981 22.1803 21.5848C22.3744 21.3914 22.3744 21.0776 22.1803 20.8838Z" fill="#DC7000"/>
</g>
<defs>
<clipPath id="clip0_1_147">
<rect width="29.8597" height="29.7458" fill="white" transform="translate(17.6948 17.6271)"/>
</clipPath>
</defs>
</svg>
